<?xml version="1.0" encoding="UTF-8"?>
<!DOCTYPE svg PUBLIC "-//W3C//DTD SVG 1.1//EN" "http://www.w3.org/Graphics/SVG/1.1/DTD/svg11.dtd">
<svg version="1.2" width="228.6mm" height="254mm" viewBox="0 0 22860 25400" preserveAspectRatio="xMidYMid" fill-rule="evenodd" clip-path="url(#presentation_clip_path)" stroke-width="28.222" stroke-linejoin="round" xmlns="http://www.w3.org/2000/svg" xmlns:ooo="http://xml.openoffice.org/svg/export" xmlns:xlink="http://www.w3.org/1999/xlink" xml:space="preserve">
 <defs class="ClipPathGroup">
  <clipPath id="presentation_clip_path" clipPathUnits="userSpaceOnUse">
   <rect x="0" y="0" width="22860" height="25400"/>
  </clipPath>
 </defs>
 <defs class="TextShapeIndex">
  <g ooo:slide="id1" ooo:id-list="id3 id4 id5 id6 id7 id8 id9 id10 id11 id12 id13 id14 id15 id16 id17 id18 id19 id20 id21 id22 id23 id24 id25 id26 id27 id28 id29 id30 id31 id32 id33 id34"/>
 </defs>
 <defs class="EmbeddedBulletChars">
  <g id="bullet-char-template(57356)" transform="scale(0.00048828125,-0.00048828125)">
   <path d="M 580,1141 L 1163,571 580,0 -4,571 580,1141 Z"/>
  </g>
  <g id="bullet-char-template(57354)" transform="scale(0.00048828125,-0.00048828125)">
   <path d="M 8,1128 L 1137,1128 1137,0 8,0 8,1128 Z"/>
  </g>
  <g id="bullet-char-template(10146)" transform="scale(0.00048828125,-0.00048828125)">
   <path d="M 174,0 L 602,739 174,1481 1456,739 174,0 Z M 1358,739 L 309,1346 659,739 1358,739 Z"/>
  </g>
  <g id="bullet-char-template(10132)" transform="scale(0.00048828125,-0.00048828125)">
   <path d="M 2015,739 L 1276,0 717,0 1260,543 174,543 174,936 1260,936 717,1481 1274,1481 2015,739 Z"/>
  </g>
  <g id="bullet-char-template(10007)" transform="scale(0.00048828125,-0.00048828125)">
   <path d="M 0,-2 C -7,14 -16,27 -25,37 L 356,567 C 262,823 215,952 215,954 215,979 228,992 255,992 264,992 276,990 289,987 310,991 331,999 354,1012 L 381,999 492,748 772,1049 836,1024 860,1049 C 881,1039 901,1025 922,1006 886,937 835,863 770,784 769,783 710,716 594,584 L 774,223 C 774,196 753,168 711,139 L 727,119 C 717,90 699,76 672,76 641,76 570,178 457,381 L 164,-76 C 142,-110 111,-127 72,-127 30,-127 9,-110 8,-76 1,-67 -2,-52 -2,-32 -2,-23 -1,-13 0,-2 Z"/>
  </g>
  <g id="bullet-char-template(10004)" transform="scale(0.00048828125,-0.00048828125)">
   <path d="M 285,-33 C 182,-33 111,30 74,156 52,228 41,333 41,471 41,549 55,616 82,672 116,743 169,778 240,778 293,778 328,747 346,684 L 369,508 C 377,444 397,411 428,410 L 1163,1116 C 1174,1127 1196,1133 1229,1133 1271,1133 1292,1118 1292,1087 L 1292,965 C 1292,929 1282,901 1262,881 L 442,47 C 390,-6 338,-33 285,-33 Z"/>
  </g>
  <g id="bullet-char-template(9679)" transform="scale(0.00048828125,-0.00048828125)">
   <path d="M 813,0 C 632,0 489,54 383,161 276,268 223,411 223,592 223,773 276,916 383,1023 489,1130 632,1184 813,1184 992,1184 1136,1130 1245,1023 1353,916 1407,772 1407,592 1407,412 1353,268 1245,161 1136,54 992,0 813,0 Z"/>
  </g>
  <g id="bullet-char-template(8226)" transform="scale(0.00048828125,-0.00048828125)">
   <path d="M 346,457 C 273,457 209,483 155,535 101,586 74,649 74,723 74,796 101,859 155,911 209,963 273,989 346,989 419,989 480,963 531,910 582,859 608,796 608,723 608,648 583,586 532,535 482,483 420,457 346,457 Z"/>
  </g>
  <g id="bullet-char-template(8211)" transform="scale(0.00048828125,-0.00048828125)">
   <path d="M -4,459 L 1135,459 1135,606 -4,606 -4,459 Z"/>
  </g>
 </defs>
 <defs class="TextEmbeddedBitmaps"/>
 <g>
  <g id="id2" class="Master_Slide">
   <g id="bg-id2" class="Background"/>
   <g id="bo-id2" class="BackgroundObjects"/>
  </g>
 </g>
 <g class="SlideGroup">
  <g>
   <g id="id1" class="Slide" clip-path="url(#presentation_clip_path)">
    <g class="Page">
     <g class="com.sun.star.drawing.TextShape">
      <g id="id3">
       <text class="TextShape"><tspan class="TextParagraph" font-family="Arial, sans-serif" font-size="529px" font-weight="700"><tspan class="TextPosition" x="885" y="1243"><tspan fill="rgb(0,0,0)" stroke="none">Emma</tspan></tspan></tspan></text>
      </g>
     </g>
     <g class="com.sun.star.drawing.TextShape">
      <g id="id4">
       <text class="TextShape"><tspan class="TextParagraph" font-family="Arial, sans-serif" font-size="529px" font-weight="700"><tspan class="TextPosition" x="12315" y="1243"><tspan fill="rgb(0,0,0)" stroke="none">Jack</tspan></tspan></tspan></text>
      </g>
     </g>
     <g class="com.sun.star.drawing.ConnectorShape">
      <g id="id5">
       <path fill="none" stroke="rgb(0,0,0)" d="M 2540,4445 L 2540,6555"/>
       <path fill="rgb(0,0,0)" stroke="none" d="M 2540,6985 L 2690,6535 2390,6535 2540,6985 Z"/>
      </g>
     </g>
     <g class="com.sun.star.drawing.CustomShape">
      <g id="id6">
       <path fill="none" stroke="rgb(51,51,51)" d="M 2540,4445 L 635,4445 635,1905 4445,1905 4445,4445 2540,4445 Z"/>
       <text class="TextShape"><tspan class="TextParagraph" font-family="Arial, sans-serif" font-size="529px" font-weight="700"><tspan class="TextPosition" x="1846" y="2763"><tspan fill="rgb(0,0,0)" stroke="none">listen</tspan></tspan></tspan><tspan class="TextParagraph" font-family="Arial, sans-serif" font-size="529px" font-weight="400"><tspan class="TextPosition" x="925" y="3360"><tspan fill="rgb(0,0,0)" stroke="none">“</tspan><tspan fill="rgb(0,0,0)" stroke="none">do you have </tspan></tspan></tspan><tspan class="TextParagraph" font-family="Arial, sans-serif" font-size="529px" font-weight="400"><tspan class="TextPosition" x="1076" y="3957"><tspan fill="rgb(0,0,0)" stroke="none">time today?”</tspan></tspan></tspan></text>
      </g>
     </g>
     <g class="com.sun.star.drawing.CustomShape">
      <g id="id7">
       <path fill="none" stroke="rgb(51,51,51)" d="M 13964,4445 L 12059,4445 12059,1905 15869,1905 15869,4445 13964,4445 Z"/>
       <text class="TextShape"><tspan class="TextParagraph" font-family="Arial, sans-serif" font-size="529px" font-weight="700"><tspan class="TextPosition" x="13520" y="2763"><tspan fill="rgb(0,0,0)" stroke="none">ask</tspan></tspan></tspan><tspan class="TextParagraph" font-family="Arial, sans-serif" font-size="529px" font-weight="400"><tspan class="TextPosition" x="12349" y="3360"><tspan fill="rgb(0,0,0)" stroke="none">“</tspan><tspan fill="rgb(0,0,0)" stroke="none">do you have </tspan></tspan></tspan><tspan class="TextParagraph" font-family="Arial, sans-serif" font-size="529px" font-weight="400"><tspan class="TextPosition" x="12500" y="3957"><tspan fill="rgb(0,0,0)" stroke="none">time today?”</tspan></tspan></tspan></text>
      </g>
     </g>
     <g class="com.sun.star.drawing.ConnectorShape">
      <g id="id8">
       <path fill="none" stroke="rgb(0,0,0)" d="M 13964,4445 L 13964,5715 13970,5715 13970,6555"/>
       <path fill="rgb(0,0,0)" stroke="none" d="M 13970,6985 L 14120,6535 13820,6535 13970,6985 Z"/>
      </g>
     </g>
     <g class="com.sun.star.drawing.CustomShape">
      <g id="id9">
       <path fill="none" stroke="rgb(51,51,51)" d="M 2540,6985 L 4446,8255 2540,9526 635,8255 2540,6985 2540,6985 Z"/>
       <path fill="none" stroke="rgb(51,51,51)" d="M 635,6985 L 635,6985 Z"/>
       <path fill="none" stroke="rgb(51,51,51)" d="M 4446,9526 L 4446,9526 Z"/>
       <text class="TextShape"><tspan class="TextParagraph" font-family="Arial, sans-serif" font-size="529px" font-weight="700"><tspan class="TextPosition" x="1699" y="8440"><tspan fill="rgb(0,0,0)" stroke="none">decide</tspan></tspan></tspan></text>
      </g>
     </g>
     <g class="com.sun.star.drawing.CustomShape">
      <g id="id10">
       <path fill="none" stroke="rgb(51,51,51)" d="M 8890,9525 L 6985,9525 6985,6985 10795,6985 10795,9525 8890,9525 Z"/>
       <text class="TextShape"><tspan class="TextParagraph" font-family="Arial, sans-serif" font-size="529px" font-weight="700"><tspan class="TextPosition" x="8255" y="8141"><tspan fill="rgb(0,0,0)" stroke="none">reply</tspan></tspan></tspan><tspan class="TextParagraph" font-family="Arial, sans-serif" font-size="529px" font-weight="400"><tspan class="TextPosition" x="8416" y="8738"><tspan fill="rgb(0,0,0)" stroke="none">“</tspan><tspan fill="rgb(0,0,0)" stroke="none">no”</tspan></tspan></tspan></text>
      </g>
     </g>
     <g class="com.sun.star.drawing.CustomShape">
      <g id="id11">
       <path fill="none" stroke="rgb(51,51,51)" d="M 2540,14605 L 635,14605 635,12065 4445,12065 4445,14605 2540,14605 Z"/>
       <text class="TextShape"><tspan class="TextParagraph" font-family="Arial, sans-serif" font-size="529px" font-weight="700"><tspan class="TextPosition" x="1905" y="13221"><tspan fill="rgb(0,0,0)" stroke="none">reply</tspan></tspan></tspan><tspan class="TextParagraph" font-family="Arial, sans-serif" font-size="529px" font-weight="400"><tspan class="TextPosition" x="1947" y="13818"><tspan fill="rgb(0,0,0)" stroke="none">“</tspan><tspan fill="rgb(0,0,0)" stroke="none">yes”</tspan></tspan></tspan></text>
      </g>
     </g>
     <g class="com.sun.star.drawing.ConnectorShape">
      <g id="id12">
       <path fill="none" stroke="rgb(0,0,0)" d="M 2540,9525 L 2540,11635"/>
       <path fill="rgb(0,0,0)" stroke="none" d="M 2540,12065 L 2690,11615 2390,11615 2540,12065 Z"/>
      </g>
     </g>
     <g class="com.sun.star.drawing.ConnectorShape">
      <g id="id13">
       <path fill="none" stroke="rgb(0,0,0)" d="M 4445,8255 L 6555,8255"/>
       <path fill="rgb(0,0,0)" stroke="none" d="M 6985,8255 L 6535,8105 6535,8405 6985,8255 Z"/>
      </g>
     </g>
     <g class="com.sun.star.drawing.TextShape">
      <g id="id14">
       <text class="TextShape"><tspan class="TextParagraph" font-family="Arial, sans-serif" font-size="529px" font-style="italic" font-weight="400"><tspan class="TextPosition" x="2791" y="5601"><tspan fill="rgb(0,0,0)" stroke="none">wait for a </tspan></tspan></tspan><tspan class="TextParagraph" font-family="Arial, sans-serif" font-size="529px" font-style="italic" font-weight="400"><tspan class="TextPosition" x="2791" y="6198"><tspan fill="rgb(0,0,0)" stroke="none">message</tspan></tspan></tspan></text>
      </g>
     </g>
     <g class="com.sun.star.drawing.CustomShape">
      <g id="id15">
       <path fill="none" stroke="rgb(51,51,51)" d="M 2540,17145 L 4446,18415 2540,19686 635,18415 2540,17145 2540,17145 Z"/>
       <path fill="none" stroke="rgb(51,51,51)" d="M 635,17145 L 635,17145 Z"/>
       <path fill="none" stroke="rgb(51,51,51)" d="M 4446,19686 L 4446,19686 Z"/>
       <text class="TextShape"><tspan class="TextParagraph" font-family="Arial, sans-serif" font-size="529px" font-weight="700"><tspan class="TextPosition" x="1699" y="18600"><tspan fill="rgb(0,0,0)" stroke="none">decide</tspan></tspan></tspan></text>
      </g>
     </g>
     <g class="com.sun.star.drawing.CustomShape">
      <g id="id16">
       <path fill="none" stroke="rgb(51,51,51)" d="M 8890,19685 L 6985,19685 6985,17145 10795,17145 10795,19685 8890,19685 Z"/>
       <text class="TextShape"><tspan class="TextParagraph" font-family="Arial, sans-serif" font-size="529px" font-weight="700"><tspan class="TextPosition" x="8255" y="18301"><tspan fill="rgb(0,0,0)" stroke="none">reply</tspan></tspan></tspan><tspan class="TextParagraph" font-family="Arial, sans-serif" font-size="529px" font-weight="400"><tspan class="TextPosition" x="8416" y="18898"><tspan fill="rgb(0,0,0)" stroke="none">“</tspan><tspan fill="rgb(0,0,0)" stroke="none">no”</tspan></tspan></tspan></text>
      </g>
     </g>
     <g class="com.sun.star.drawing.CustomShape">
      <g id="id17">
       <path fill="none" stroke="rgb(51,51,51)" d="M 2540,24765 L 635,24765 635,22225 4445,22225 4445,24765 2540,24765 Z"/>
       <text class="TextShape"><tspan class="TextParagraph" font-family="Arial, sans-serif" font-size="529px" font-weight="700"><tspan class="TextPosition" x="1905" y="23381"><tspan fill="rgb(0,0,0)" stroke="none">reply</tspan></tspan></tspan><tspan class="TextParagraph" font-family="Arial, sans-serif" font-size="529px" font-weight="400"><tspan class="TextPosition" x="2081" y="23978"><tspan fill="rgb(0,0,0)" stroke="none">“</tspan><tspan fill="rgb(0,0,0)" stroke="none">ok”</tspan></tspan></tspan></text>
      </g>
     </g>
     <g class="com.sun.star.drawing.ConnectorShape">
      <g id="id18">
       <path fill="none" stroke="rgb(0,0,0)" d="M 2540,14605 L 2540,16715"/>
       <path fill="rgb(0,0,0)" stroke="none" d="M 2540,17145 L 2690,16695 2390,16695 2540,17145 Z"/>
      </g>
     </g>
     <g class="com.sun.star.drawing.ConnectorShape">
      <g id="id19">
       <path fill="none" stroke="rgb(0,0,0)" d="M 2540,19685 L 2540,21795"/>
       <path fill="rgb(0,0,0)" stroke="none" d="M 2540,22225 L 2690,21775 2390,21775 2540,22225 Z"/>
      </g>
     </g>
     <g class="com.sun.star.drawing.ConnectorShape">
      <g id="id20">
       <path fill="none" stroke="rgb(0,0,0)" d="M 4445,18415 L 6555,18415"/>
       <path fill="rgb(0,0,0)" stroke="none" d="M 6985,18415 L 6535,18265 6535,18565 6985,18415 Z"/>
      </g>
     </g>
     <g class="com.sun.star.drawing.TextShape">
      <g id="id21">
       <text class="TextShape"><tspan class="TextParagraph" font-family="Arial, sans-serif" font-size="529px" font-style="italic" font-weight="400"><tspan class="TextPosition" x="2790" y="15761"><tspan fill="rgb(0,0,0)" stroke="none">wait for a </tspan></tspan></tspan><tspan class="TextParagraph" font-family="Arial, sans-serif" font-size="529px" font-style="italic" font-weight="400"><tspan class="TextPosition" x="2790" y="16358"><tspan fill="rgb(0,0,0)" stroke="none">message</tspan></tspan></tspan></text>
      </g>
     </g>
     <g class="com.sun.star.drawing.CustomShape">
      <g id="id22">
       <path fill="none" stroke="rgb(51,51,51)" d="M 13970,6985 L 15876,8255 13970,9526 12065,8255 13970,6985 13970,6985 Z"/>
       <path fill="none" stroke="rgb(51,51,51)" d="M 12065,6985 L 12065,6985 Z"/>
       <path fill="none" stroke="rgb(51,51,51)" d="M 15876,9526 L 15876,9526 Z"/>
       <text class="TextShape"><tspan class="TextParagraph" font-family="Arial, sans-serif" font-size="529px" font-weight="700"><tspan class="TextPosition" x="13129" y="8440"><tspan fill="rgb(0,0,0)" stroke="none">decide</tspan></tspan></tspan></text>
      </g>
     </g>
     <g class="com.sun.star.drawing.CustomShape">
      <g id="id23">
       <path fill="none" stroke="rgb(51,51,51)" d="M 13970,14605 L 12065,14605 12065,12065 15875,12065 15875,14605 13970,14605 Z"/>
       <text class="TextShape"><tspan class="TextParagraph" font-family="Arial, sans-serif" font-size="529px" font-weight="700"><tspan class="TextPosition" x="13335" y="12923"><tspan fill="rgb(0,0,0)" stroke="none">reply</tspan></tspan></tspan><tspan class="TextParagraph" font-family="Arial, sans-serif" font-size="529px" font-weight="400"><tspan class="TextPosition" x="12300" y="13520"><tspan fill="rgb(0,0,0)" stroke="none">“</tspan><tspan fill="rgb(0,0,0)" stroke="none">can we meet </tspan></tspan></tspan><tspan class="TextParagraph" font-family="Arial, sans-serif" font-size="529px" font-weight="400"><tspan class="TextPosition" x="12770" y="14117"><tspan fill="rgb(0,0,0)" stroke="none">at 15:00?”</tspan></tspan></tspan></text>
      </g>
     </g>
     <g class="com.sun.star.drawing.CustomShape">
      <g id="id24">
       <path fill="none" stroke="rgb(51,51,51)" d="M 13970,17167 L 15876,18437 13970,19708 12065,18437 13970,17167 13970,17167 Z"/>
       <path fill="none" stroke="rgb(51,51,51)" d="M 12065,17167 L 12065,17167 Z"/>
       <path fill="none" stroke="rgb(51,51,51)" d="M 15876,19708 L 15876,19708 Z"/>
       <text class="TextShape"><tspan class="TextParagraph" font-family="Arial, sans-serif" font-size="529px" font-weight="700"><tspan class="TextPosition" x="13129" y="18622"><tspan fill="rgb(0,0,0)" stroke="none">decide</tspan></tspan></tspan></text>
      </g>
     </g>
     <g class="com.sun.star.drawing.TextShape">
      <g id="id25">
       <text class="TextShape"><tspan class="TextParagraph" font-family="Arial, sans-serif" font-size="529px" font-style="italic" font-weight="400"><tspan class="TextPosition" x="14220" y="5601"><tspan fill="rgb(0,0,0)" stroke="none">wait for a </tspan></tspan></tspan><tspan class="TextParagraph" font-family="Arial, sans-serif" font-size="529px" font-style="italic" font-weight="400"><tspan class="TextPosition" x="14220" y="6198"><tspan fill="rgb(0,0,0)" stroke="none">message</tspan></tspan></tspan></text>
      </g>
     </g>
     <g class="com.sun.star.drawing.TextShape">
      <g id="id26">
       <text class="TextShape"><tspan class="TextParagraph" font-family="Arial, sans-serif" font-size="529px" font-style="italic" font-weight="400"><tspan class="TextPosition" x="14220" y="15761"><tspan fill="rgb(0,0,0)" stroke="none">wait for a </tspan></tspan></tspan><tspan class="TextParagraph" font-family="Arial, sans-serif" font-size="529px" font-style="italic" font-weight="400"><tspan class="TextPosition" x="14220" y="16358"><tspan fill="rgb(0,0,0)" stroke="none">message</tspan></tspan></tspan></text>
      </g>
     </g>
     <g class="com.sun.star.drawing.ConnectorShape">
      <g id="id27">
       <path fill="none" stroke="rgb(0,0,0)" d="M 15875,8255 L 17985,8255"/>
       <path fill="rgb(0,0,0)" stroke="none" d="M 18415,8255 L 17965,8105 17965,8405 18415,8255 Z"/>
      </g>
     </g>
     <g class="com.sun.star.drawing.ConnectorShape">
      <g id="id28">
       <path fill="none" stroke="rgb(0,0,0)" d="M 13970,9525 L 13970,11635"/>
       <path fill="rgb(0,0,0)" stroke="none" d="M 13970,12065 L 14120,11615 13820,11615 13970,12065 Z"/>
      </g>
     </g>
     <g class="com.sun.star.drawing.ConnectorShape">
      <g id="id29">
       <path fill="none" stroke="rgb(0,0,0)" d="M 13970,14605 L 13970,16737"/>
       <path fill="rgb(0,0,0)" stroke="none" d="M 13970,17167 L 14120,16717 13820,16717 13970,17167 Z"/>
      </g>
     </g>
     <g class="com.sun.star.drawing.ConnectorShape">
      <g id="id30">
       <path fill="none" stroke="rgb(0,0,0)" d="M 13970,19707 L 13970,21795"/>
       <path fill="rgb(0,0,0)" stroke="none" d="M 13970,22225 L 14120,21775 13820,21775 13970,22225 Z"/>
      </g>
     </g>
     <g class="com.sun.star.drawing.ConnectorShape">
      <g id="id31">
       <path fill="none" stroke="rgb(0,0,0)" d="M 15875,18437 L 17396,18437 17396,18415 17985,18415"/>
       <path fill="rgb(0,0,0)" stroke="none" d="M 18415,18415 L 17965,18265 17965,18565 18415,18415 Z"/>
      </g>
     </g>
     <g class="com.sun.star.drawing.CustomShape">
      <g id="id32">
       <path fill="none" stroke="rgb(51,51,51)" d="M 20320,6985 C 21400,6985 22225,7535 22225,8255 22225,8975 21400,9525 20320,9525 19240,9525 18415,8975 18415,8255 18415,7535 19240,6985 20320,6985 Z"/>
       <path fill="none" stroke="rgb(51,51,51)" d="M 18415,6985 L 18415,6985 Z"/>
       <path fill="none" stroke="rgb(51,51,51)" d="M 22226,9526 L 22226,9526 Z"/>
       <text class="TextShape"><tspan class="TextParagraph" font-family="Arial, sans-serif" font-size="529px" font-weight="700"><tspan class="TextPosition" x="19894" y="7843"><tspan fill="rgb(0,0,0)" stroke="none">run</tspan></tspan><tspan class="TextPosition" x="18605" y="8440"><tspan font-weight="400" fill="rgb(0,0,0)" stroke="none">output “emma </tspan></tspan></tspan><tspan class="TextParagraph" font-family="Arial, sans-serif" font-size="529px" font-weight="400"><tspan class="TextPosition" x="18855" y="9037"><tspan fill="rgb(0,0,0)" stroke="none">has no time”</tspan></tspan></tspan></text>
      </g>
     </g>
     <g class="com.sun.star.drawing.CustomShape">
      <g id="id33">
       <path fill="none" stroke="rgb(51,51,51)" d="M 20320,17145 C 21400,17145 22225,17695 22225,18415 22225,19135 21400,19685 20320,19685 19240,19685 18415,19135 18415,18415 18415,17695 19240,17145 20320,17145 Z"/>
       <path fill="none" stroke="rgb(51,51,51)" d="M 18415,17145 L 18415,17145 Z"/>
       <path fill="none" stroke="rgb(51,51,51)" d="M 22226,19686 L 22226,19686 Z"/>
       <text class="TextShape"><tspan class="TextParagraph" font-family="Arial, sans-serif" font-size="529px" font-weight="700"><tspan class="TextPosition" x="19894" y="18003"><tspan fill="rgb(0,0,0)" stroke="none">run</tspan></tspan><tspan class="TextPosition" x="18605" y="18600"><tspan font-weight="400" fill="rgb(0,0,0)" stroke="none">output “emma </tspan></tspan></tspan><tspan class="TextParagraph" font-family="Arial, sans-serif" font-size="529px" font-weight="400"><tspan class="TextPosition" x="18847" y="19197"><tspan fill="rgb(0,0,0)" stroke="none">didn&apos;t agree”</tspan></tspan></tspan></text>
      </g>
     </g>
     <g class="com.sun.star.drawing.CustomShape">
      <g id="id34">
       <path fill="none" stroke="rgb(51,51,51)" d="M 13970,22225 C 15050,22225 15875,22775 15875,23495 15875,24215 15050,24765 13970,24765 12890,24765 12065,24215 12065,23495 12065,22775 12890,22225 13970,22225 Z"/>
       <path fill="none" stroke="rgb(51,51,51)" d="M 12065,22225 L 12065,22225 Z"/>
       <path fill="none" stroke="rgb(51,51,51)" d="M 15876,24766 L 15876,24766 Z"/>
       <text class="TextShape"><tspan class="TextParagraph" font-family="Arial, sans-serif" font-size="529px" font-weight="700"><tspan class="TextPosition" x="13544" y="23083"><tspan fill="rgb(0,0,0)" stroke="none">run</tspan></tspan><tspan class="TextPosition" x="12255" y="23680"><tspan font-weight="400" fill="rgb(0,0,0)" stroke="none">output “emma </tspan></tspan></tspan><tspan class="TextParagraph" font-family="Arial, sans-serif" font-size="529px" font-weight="400"><tspan class="TextPosition" x="13051" y="24277"><tspan fill="rgb(0,0,0)" stroke="none">agreed”</tspan></tspan></tspan></text>
      </g>
     </g>
    </g>
   </g>
  </g>
 </g>
</svg>